<?xml version="1.0" encoding="UTF-8" standalone="no"?>
<!-- Generator: Adobe Illustrator 16.0.0, SVG Export Plug-In . SVG Version: 6.00 Build 0)  -->

<svg
   xmlns:dc="http://purl.org/dc/elements/1.1/"
   xmlns:cc="http://creativecommons.org/ns#"
   xmlns:rdf="http://www.w3.org/1999/02/22-rdf-syntax-ns#"
   xmlns:svg="http://www.w3.org/2000/svg"
   xmlns="http://www.w3.org/2000/svg"
   xmlns:sodipodi="http://sodipodi.sourceforge.net/DTD/sodipodi-0.dtd"
   xmlns:inkscape="http://www.inkscape.org/namespaces/inkscape"
   version="1.1"
   id="Layer_1"
   x="0px"
   y="0px"
   width="528.747px"
   height="59.613px"
   viewBox="7.253 14.554 528.747 59.613"
   enable-background="new 7.253 14.554 528.747 59.613"
   xml:space="preserve"
   inkscape:version="0.91 r13725"
   sodipodi:docname="logo.svg"><metadata
     id="metadata55"><rdf:RDF><cc:Work
         rdf:about=""><dc:format>image/svg+xml</dc:format><dc:type
           rdf:resource="http://purl.org/dc/dcmitype/StillImage" /><dc:title></dc:title></cc:Work></rdf:RDF></metadata><defs
     id="defs53" /><sodipodi:namedview
     pagecolor="#ffffff"
     bordercolor="#666666"
     borderopacity="1"
     objecttolerance="10"
     gridtolerance="10"
     guidetolerance="10"
     inkscape:pageopacity="0"
     inkscape:pageshadow="2"
     inkscape:window-width="690"
     inkscape:window-height="972"
     id="namedview51"
     showgrid="false"
     inkscape:zoom="0.55035772"
     inkscape:cx="264.3735"
     inkscape:cy="29.806499"
     inkscape:window-x="613"
     inkscape:window-y="485"
     inkscape:window-maximized="0"
     inkscape:current-layer="Layer_1" /><g
     id="Layer_1_1_"><g
       id="g4"><path
         d="M462.477,52.74c-4.988,5.624-11.563,10.814-18.477,10.814c-14.238,0-18-13.084-18-20c0-7.664,5.721-19,18-19    c7.106,0,14.94,6.842,20.375,12.774l6.622-7.438c-6.706-7.228-16.312-15.336-26.997-15.336c-17.295,0-28,15.053-28,29    c0,7.162,2.361,14.346,6.479,19.709c3.604,4.694,10.262,10.291,21.521,10.291c10.607,0,19.48-6.951,25.696-13.892    c0.206-0.229-6.126-6.64-6.771-7.445C462.775,52.393,462.63,52.566,462.477,52.74z"
         id="path6" /><path
         d="M485.631,47.993c-0.896-1.199-1.104-1.399-1.909-2.519c-0.441-0.617-6.434-8.138-10.099-12.505l-6.723,7.607    c3.569,4.315,9.557,12.146,11.942,15.187L485.631,47.993z"
         id="path8" /><path
         d="M529.373,24.309c-3.604-4.45-10.238-9.754-21.373-9.754c-5.663,0-11.622,2.271-17.793,6.771l6.945,7.335    c3.97-2.705,7.641-4.105,10.848-4.105c14.238,0,18,12.428,18,19c0,3.34-0.868,20-18,20c-8.525,0-15.022-5.951-19.966-12.125    l-6.592,7.543c6.111,7.672,13.695,14.582,26.558,14.582c11.818,0,18.479-5.675,21.985-10.437    c5.233-7.106,6.015-15.31,6.015-19.565C536,36.522,533.585,29.507,529.373,24.309z"
         id="path10" /></g><g
       enable-background="new    "
       id="g12"><path
         d="M42.653,26.207c-0.293,0.587-0.634,1-1.02,1.24c-0.387,0.24-0.847,0.36-1.38,0.36c-0.534,0-1.134-0.206-1.8-0.62    c-0.667-0.413-1.454-0.873-2.36-1.38c-0.907-0.507-1.967-0.967-3.18-1.38c-1.214-0.413-2.647-0.62-4.3-0.62    c-1.494,0-2.793,0.18-3.9,0.54c-1.107,0.359-2.04,0.859-2.8,1.5c-0.76,0.64-1.327,1.406-1.7,2.3    c-0.374,0.894-0.56,1.874-0.56,2.939c0,1.36,0.38,2.494,1.14,3.4c0.76,0.907,1.766,1.68,3.02,2.32    c1.253,0.64,2.68,1.214,4.28,1.72c1.6,0.507,3.233,1.047,4.9,1.62c1.666,0.573,3.3,1.24,4.9,2s3.026,1.72,4.28,2.88    s2.26,2.58,3.02,4.26c0.76,1.681,1.14,3.721,1.14,6.12c0,2.614-0.447,5.061-1.34,7.34c-0.894,2.28-2.2,4.268-3.92,5.96    c-1.72,1.694-3.82,3.027-6.3,4c-2.48,0.974-5.32,1.46-8.52,1.46c-1.84,0-3.654-0.18-5.44-0.54c-1.787-0.359-3.5-0.873-5.14-1.54    c-1.64-0.666-3.174-1.466-4.6-2.399c-1.427-0.934-2.7-1.974-3.82-3.12l3.12-5.16c0.293-0.373,0.646-0.687,1.06-0.939    c0.413-0.254,0.873-0.381,1.38-0.381c0.666,0,1.386,0.274,2.16,0.82c0.773,0.547,1.686,1.154,2.74,1.82    c1.053,0.667,2.293,1.273,3.72,1.819c1.426,0.547,3.14,0.82,5.14,0.82c3.066,0,5.44-0.727,7.12-2.18    c1.68-1.453,2.52-3.54,2.52-6.26c0-1.521-0.38-2.761-1.14-3.721c-0.76-0.96-1.767-1.766-3.02-2.42    c-1.254-0.653-2.68-1.206-4.28-1.66c-1.6-0.453-3.227-0.946-4.88-1.479c-1.654-0.533-3.28-1.173-4.88-1.92    c-1.6-0.746-3.027-1.72-4.28-2.92c-1.254-1.2-2.26-2.7-3.02-4.5c-0.76-1.8-1.14-4.021-1.14-6.66c0-2.106,0.42-4.16,1.26-6.16    s2.066-3.773,3.68-5.32c1.613-1.546,3.593-2.786,5.94-3.72c2.346-0.933,5.026-1.4,8.04-1.4c3.413,0,6.56,0.534,9.44,1.601    s5.333,2.56,7.36,4.479L42.653,26.207z"
         id="path14" /><path
         d="M49.213,15.688h9.04c0.933,0,1.713,0.22,2.34,0.66c0.626,0.439,1.046,1.033,1.26,1.779l9.84,34.601    c0.24,0.854,0.46,1.78,0.66,2.78c0.2,1,0.393,2.06,0.58,3.18c0.213-1.12,0.446-2.18,0.7-3.18s0.526-1.927,0.82-2.78l11.36-34.601    c0.213-0.612,0.633-1.173,1.26-1.68c0.626-0.506,1.393-0.76,2.3-0.76h3.16c0.933,0,1.707,0.22,2.32,0.66    c0.613,0.439,1.04,1.033,1.28,1.779l11.28,34.601c0.586,1.707,1.093,3.6,1.52,5.68c0.186-1.04,0.38-2.04,0.58-3    c0.2-0.96,0.406-1.853,0.62-2.68l9.84-34.601c0.186-0.666,0.6-1.239,1.24-1.72c0.64-0.479,1.413-0.72,2.32-0.72h8.44l-17.96,57.84    h-9.72l-12.64-39.52c-0.16-0.507-0.327-1.054-0.5-1.641c-0.174-0.586-0.34-1.213-0.5-1.88c-0.16,0.667-0.327,1.294-0.5,1.88    c-0.174,0.587-0.34,1.134-0.5,1.641l-12.76,39.52h-9.72L49.213,15.688z"
         id="path16" /><path
         d="M150.413,73.527h-10.8v-57.84h10.8V73.527z"
         id="path18" /><path
         d="M204.172,15.688v8.84h-17.4v49h-10.76v-49h-17.48v-8.84H204.172z"
         id="path20" /><path
         d="M247.652,59.888c0.586,0,1.093,0.227,1.52,0.68l4.24,4.6c-2.347,2.907-5.233,5.134-8.66,6.681    c-3.427,1.547-7.54,2.319-12.34,2.319c-4.293,0-8.154-0.732-11.58-2.199c-3.427-1.467-6.354-3.507-8.78-6.12    c-2.427-2.613-4.287-5.733-5.58-9.36c-1.293-3.626-1.94-7.586-1.94-11.88c0-4.347,0.72-8.326,2.16-11.94    c1.44-3.612,3.466-6.726,6.08-9.34c2.613-2.613,5.74-4.646,9.38-6.1s7.66-2.181,12.06-2.181c4.293,0,8.046,0.688,11.26,2.061    c3.213,1.374,5.966,3.193,8.26,5.46l-3.6,5c-0.214,0.32-0.487,0.6-0.82,0.84s-0.793,0.36-1.38,0.36c-0.614,0-1.24-0.24-1.88-0.721    c-0.64-0.479-1.454-1-2.44-1.56c-0.987-0.56-2.234-1.08-3.74-1.56c-1.507-0.48-3.42-0.721-5.74-0.721c-2.72,0-5.22,0.474-7.5,1.42    c-2.28,0.947-4.24,2.301-5.88,4.061c-1.64,1.76-2.92,3.899-3.84,6.42c-0.92,2.52-1.38,5.354-1.38,8.5    c0,3.254,0.46,6.146,1.38,8.68c0.92,2.534,2.167,4.667,3.74,6.4c1.573,1.733,3.426,3.06,5.56,3.979    c2.133,0.92,4.426,1.38,6.88,1.38c1.466,0,2.793-0.079,3.98-0.239c1.186-0.16,2.28-0.413,3.28-0.761    c1-0.346,1.946-0.793,2.84-1.34c0.893-0.546,1.78-1.22,2.66-2.02c0.267-0.24,0.546-0.434,0.84-0.58    C246.985,59.961,247.305,59.888,247.652,59.888z"
         id="path22" /><path
         d="M310.331,73.527H299.49v-25.28h-27.119v25.28h-10.84v-57.84h10.84v24.88h27.119v-24.88h10.841V73.527z"
         id="path24" /><path
         d="M358.49,15.688v8.56H332.85v16.04h20.201v8.28H332.85v16.36h25.641v8.6h-36.48v-57.84H358.49z"
         id="path26" /><path
         d="M378.93,50.928v22.6h-10.76v-57.84h17.641c3.945,0,7.326,0.406,10.141,1.22c2.812,0.813,5.119,1.954,6.92,3.42    c1.799,1.467,3.119,3.22,3.959,5.26s1.26,4.287,1.26,6.74c0,1.947-0.287,3.787-0.859,5.521c-0.574,1.733-1.4,3.307-2.48,4.72    c-1.08,1.414-2.414,2.653-4,3.72c-1.586,1.067-3.393,1.92-5.42,2.561c1.359,0.773,2.533,1.88,3.52,3.319l14.48,21.36h-9.68    c-0.934,0-1.727-0.187-2.381-0.56c-0.652-0.374-1.207-0.906-1.66-1.601l-12.158-18.52c-0.455-0.693-0.955-1.187-1.5-1.48    c-0.547-0.293-1.355-0.439-2.422-0.439H378.93z M378.93,43.207h6.721c2.025,0,3.793-0.253,5.301-0.76    c1.506-0.506,2.746-1.206,3.719-2.1s1.701-1.953,2.18-3.181c0.48-1.226,0.721-2.573,0.721-4.04c0-2.933-0.967-5.186-2.9-6.76    c-1.934-1.573-4.887-2.359-8.859-2.359h-6.881V43.207z"
         id="path28" /></g></g><g
     id="Layer_4"><g
       id="g31"><path
         d="M472.447,47.582l1.607,19.223l-20.831-17.615L472.447,47.582z"
         id="path33" /></g><rect
       x="485.556"
       y="23.518"
       transform="matrix(-0.6963 -0.7177 0.7177 -0.6963 819.0138 397.2841)"
       width="16.004"
       height="3.702"
       id="rect35" /><g
       id="g37"><g
         id="g39"><path
           d="M486.729,31.119l-5.327-6.165l5.406,0.27L486.729,31.119z"
           id="path41" /></g><polygon
         points="479.873,34.477 478.062,32.38 483.486,26.82 485.298,28.917   "
         id="polygon43" /><g
         id="g45"><path
           d="M491.95,37.152l-5.326-6.166l5.406,0.272L491.95,37.152z"
           id="path47" /></g><polygon
         points="485.096,40.509 483.285,38.412 488.71,32.853 490.521,34.949   "
         id="polygon49" /></g></g></svg>